<svg xmlns="http://www.w3.org/2000/svg" width="1000" height="590" viewBox="0 0 1000 590">
<rect width="100%" height="100%" fill="white"/>
<text x="500" y="34" text-anchor="middle" font-family="Arial" font-size="24" font-weight="700">Midland–Cushing Basis Risk Stress Test</text>
<text x="500" y="58" text-anchor="middle" font-family="Arial" font-size="14" fill="#555">100,000 bbl/month, 100% flat-price hedge, basis locked at -$1/bbl</text><line x1="100" y1="490" x2="955" y2="490" stroke="#e5e7eb" stroke-width="1"/>
<text x="88" y="495" text-anchor="end" font-family="Arial" font-size="13" fill="#555">-1000</text><line x1="100" y1="426.15384615384613" x2="955" y2="426.15384615384613" stroke="#e5e7eb" stroke-width="1"/>
<text x="88" y="431.15384615384613" text-anchor="end" font-family="Arial" font-size="13" fill="#555">-800</text><line x1="100" y1="362.3076923076923" x2="955" y2="362.3076923076923" stroke="#e5e7eb" stroke-width="1"/>
<text x="88" y="367.3076923076923" text-anchor="end" font-family="Arial" font-size="13" fill="#555">-600</text><line x1="100" y1="298.46153846153845" x2="955" y2="298.46153846153845" stroke="#e5e7eb" stroke-width="1"/>
<text x="88" y="303.46153846153845" text-anchor="end" font-family="Arial" font-size="13" fill="#555">-400</text><line x1="100" y1="234.6153846153846" x2="955" y2="234.6153846153846" stroke="#e5e7eb" stroke-width="1"/>
<text x="88" y="239.6153846153846" text-anchor="end" font-family="Arial" font-size="13" fill="#555">-200</text><line x1="100" y1="170.76923076923077" x2="955" y2="170.76923076923077" stroke="#64748b" stroke-width="1.5"/>
<text x="88" y="175.76923076923077" text-anchor="end" font-family="Arial" font-size="13" fill="#555">0</text><line x1="100" y1="106.9230769230769" x2="955" y2="106.9230769230769" stroke="#e5e7eb" stroke-width="1"/>
<text x="88" y="111.9230769230769" text-anchor="end" font-family="Arial" font-size="13" fill="#555">200</text><line x1="100" y1="75" x2="100" y2="490" stroke="#f1f5f9"/>
<text x="100" y="520" text-anchor="middle" font-family="Arial" font-size="13" fill="#555">-10</text><line x1="488.6363636363636" y1="75" x2="488.6363636363636" y2="490" stroke="#f1f5f9"/>
<text x="488.6363636363636" y="520" text-anchor="middle" font-family="Arial" font-size="13" fill="#555">-5</text><line x1="644.0909090909091" y1="75" x2="644.0909090909091" y2="490" stroke="#f1f5f9"/>
<text x="644.0909090909091" y="520" text-anchor="middle" font-family="Arial" font-size="13" fill="#555">-3</text><line x1="799.5454545454546" y1="75" x2="799.5454545454546" y2="490" stroke="#f1f5f9"/>
<text x="799.5454545454546" y="520" text-anchor="middle" font-family="Arial" font-size="13" fill="#555">-1</text><line x1="877.2727272727273" y1="75" x2="877.2727272727273" y2="490" stroke="#f1f5f9"/>
<text x="877.2727272727273" y="520" text-anchor="middle" font-family="Arial" font-size="13" fill="#555">0</text><line x1="955" y1="75" x2="955" y2="490" stroke="#f1f5f9"/>
<text x="955" y="520" text-anchor="middle" font-family="Arial" font-size="13" fill="#555">1</text><polyline fill="none" stroke="#dc2626" stroke-width="3" points="100.0,458.1 488.6,298.5 644.1,234.6 799.5,170.8 877.3,138.8 955.0,106.9"/><circle cx="100" cy="458.0769230769231" r="4" fill="#dc2626"/><circle cx="488.6363636363636" cy="298.46153846153845" r="4" fill="#dc2626"/><circle cx="644.0909090909091" cy="234.6153846153846" r="4" fill="#dc2626"/><circle cx="799.5454545454546" cy="170.76923076923077" r="4" fill="#dc2626"/><circle cx="877.2727272727273" cy="138.84615384615387" r="4" fill="#dc2626"/><circle cx="955" cy="106.9230769230769" r="4" fill="#dc2626"/><polyline fill="none" stroke="#f59e0b" stroke-width="3" points="100.0,314.4 488.6,234.6 644.1,202.7 799.5,170.8 877.3,154.8 955.0,138.8"/><circle cx="100" cy="314.4230769230769" r="4" fill="#f59e0b"/><circle cx="488.6363636363636" cy="234.6153846153846" r="4" fill="#f59e0b"/><circle cx="644.0909090909091" cy="202.69230769230768" r="4" fill="#f59e0b"/><circle cx="799.5454545454546" cy="170.76923076923077" r="4" fill="#f59e0b"/><circle cx="877.2727272727273" cy="154.80769230769232" r="4" fill="#f59e0b"/><circle cx="955" cy="138.84615384615387" r="4" fill="#f59e0b"/><polyline fill="none" stroke="#2563eb" stroke-width="3" points="100.0,170.8 488.6,170.8 644.1,170.8 799.5,170.8 877.3,170.8 955.0,170.8"/><circle cx="100" cy="170.76923076923077" r="4" fill="#2563eb"/><circle cx="488.6363636363636" cy="170.76923076923077" r="4" fill="#2563eb"/><circle cx="644.0909090909091" cy="170.76923076923077" r="4" fill="#2563eb"/><circle cx="799.5454545454546" cy="170.76923076923077" r="4" fill="#2563eb"/><circle cx="877.2727272727273" cy="170.76923076923077" r="4" fill="#2563eb"/><circle cx="955" cy="170.76923076923077" r="4" fill="#2563eb"/><line x1="140" y1="560" x2="170" y2="560" stroke="#dc2626" stroke-width="4"/>
<text x="178" y="565" font-family="Arial" font-size="13">0% basis hedged</text><line x1="350" y1="560" x2="380" y2="560" stroke="#f59e0b" stroke-width="4"/>
<text x="388" y="565" font-family="Arial" font-size="13">50% basis hedged</text><line x1="560" y1="560" x2="590" y2="560" stroke="#2563eb" stroke-width="4"/>
<text x="598" y="565" font-family="Arial" font-size="13">100% basis hedged</text><text x="500" y="530" text-anchor="middle" font-family="Arial" font-size="14">Realized Midland minus Cushing basis ($/bbl)</text>
<text x="28" y="282.5" transform="rotate(-90 28 282.5)" text-anchor="middle" font-family="Arial" font-size="14">Residual revenue vs locked benchmark ($000)</text>
</svg>